<svg width="70" height="70" viewBox="0 0 70 70" fill="none" xmlns="http://www.w3.org/2000/svg">
<path d="M4.53446 44.5504C5.99623 44.5504 7.42131 45.0928 8.56075 46.0776L9.06882 46.5327L9.06828 6.16066C9.06828 3.42066 7.03604 1.19995 4.53386 1.19995C2.03225 1.1994 0 3.42178 0 6.16066V46.5313L0.508075 46.0899C1.6476 45.0924 3.07273 44.55 4.53436 44.55L4.53446 44.5504Z" fill="white"/>
<path d="M59.3943 42.9342V0L16.8873 42.9342H22.1275V41.4447C22.1275 40.927 22.5365 40.4977 23.0569 40.4977C23.565 40.4977 23.9863 40.927 23.9863 41.4447V42.9342H25.7325V40.2325C25.7325 39.7148 26.1415 39.2855 26.6619 39.2855C27.17 39.2855 27.5913 39.7148 27.5913 40.2325V42.9342H29.3375V41.4447C29.3375 40.927 29.7465 40.4977 30.2669 40.4977C30.775 40.4977 31.1963 40.927 31.1963 41.4447V42.9342H32.9425V40.2325C32.9425 39.7148 33.3639 39.2855 33.8719 39.2855C34.38 39.2855 34.8013 39.7148 34.8013 40.2325V42.9342H36.5475V41.4447C36.5475 40.927 36.9688 40.4977 37.4769 40.4977C37.985 40.4977 38.4063 40.927 38.4063 41.4447V42.9342H40.1525V40.2325C40.1525 39.7148 40.5738 39.2855 41.0819 39.2855C41.59 39.2855 42.0113 39.7148 42.0113 40.2325V42.9342H43.7575V41.4447C43.7575 40.927 44.1788 40.4977 44.6869 40.4977C45.2068 40.4977 45.6163 40.927 45.6163 41.4447V42.9342H47.3625V40.2325C47.3625 39.7148 47.7838 39.2855 48.2919 39.2855C48.8118 39.2855 49.2213 39.7148 49.2213 40.2325V42.9342H50.9675V41.4447C50.9675 40.927 51.3888 40.4977 51.8969 40.4977C52.4168 40.4977 52.8263 40.927 52.8263 41.4447V42.9342H54.586V40.2325C54.586 39.7148 54.9949 39.2855 55.5154 39.2855C56.0235 39.2855 56.4448 39.7148 56.4448 40.2325V42.9342H59.3943ZM50.9693 20.5276V34.4259L37.2044 34.4264L50.9693 20.5276Z" fill="white"/>
<path d="M66.8026 1.4149L66.3937 1.28809V44.6129L66.641 44.6635C67.669 44.8776 68.648 45.3705 69.4906 46.0897L69.9997 46.5453V6.16062C69.9997 3.97786 68.711 2.07014 66.8025 1.41451L66.8026 1.4149Z" fill="white"/>
<path d="M65.466 46.4449C64.9579 46.4449 64.5366 46.0155 64.5366 45.4978L64.5371 10.479H61.2542V43.883C61.2542 44.4007 60.8329 44.83 60.3248 44.83H14.6331C14.2613 44.83 13.9273 44.5901 13.7786 44.236C13.6299 43.883 13.7171 43.4784 13.9763 43.2127L46.3745 10.4791H10.9281V51.4063C10.9281 51.924 10.5067 52.3533 9.99867 52.3533C9.49059 52.3533 9.06926 51.924 9.06926 51.4063C9.06926 48.6663 7.03701 46.4456 4.53484 46.4456C2.03322 46.445 0.000976562 48.6663 0.000976562 51.4063C0.000976562 54.1463 2.03322 56.367 4.53539 56.367H65.4656C67.9687 56.367 70 54.1448 70 51.4063C69.9994 48.6663 67.9672 46.445 65.465 46.445L65.466 46.4449Z" fill="white"/>
<path d="M0.000732422 67.1466C0.000732422 68.7245 1.35147 69.9997 3.012 69.9997H6.02327V64.2935H3.012C1.35147 64.2935 0.000732422 65.5688 0.000732422 67.1466Z" fill="white"/>
<path d="M7.88062 64.2937H62.0467V70H7.88062V64.2937Z" fill="white"/>
<path d="M63.9033 69.4587L68.7357 67.1481L63.9033 64.8374V69.4587Z" fill="white"/>
</svg>
