<svg width="72" height="70" viewBox="0 0 72 70" fill="none" xmlns="http://www.w3.org/2000/svg">
<path d="M62.7089 67.6664V23.6461L37.5653 8.59394C36.6187 8.02566 35.3812 8.02826 34.4366 8.59394L9.29037 23.6474V46.6644H13.9355V27.9959H58.0646V67.6664H54.5807C55.2215 67.6664 55.742 67.1435 55.742 66.4996V57.1654C55.742 56.5216 55.2215 55.9986 54.5807 55.9986H51.0968V60.6657H44.1291V55.9986H40.6452C40.0044 55.9986 39.4839 56.5216 39.4839 57.1654V66.4996C39.4839 67.1435 40.0044 67.6664 40.6452 67.6664H36.0001C36.6408 67.6664 37.1613 67.1435 37.1613 66.4996V57.1654C37.1613 56.5216 36.6408 55.9986 36.0001 55.9986H30.1936V66.4996C30.1936 66.9101 30.1101 67.3002 29.98 67.6664H26.7097C27.3505 67.6664 27.871 67.1435 27.871 66.4996V50.1647C27.871 49.5209 27.3505 48.9979 26.7097 48.9979H20.9032V55.9986H11.6129V48.9979H5.80645C5.16567 48.9979 4.64516 49.5209 4.64516 50.1647V66.4996C4.64516 67.1435 5.16567 67.6664 5.80645 67.6664H0V70H72V67.6664H62.7089ZM22.0638 24.4955C20.7827 24.4955 19.7412 23.449 19.7412 22.1619C19.7412 20.8748 20.7827 19.8284 22.0638 19.8284C23.3448 19.8284 24.3864 20.8748 24.3864 22.1619C24.3864 23.449 23.3448 24.4955 22.0638 24.4955ZM44.1283 25.6623H27.8702V13.9945H44.1283V25.6623ZM49.9347 24.4955C48.6537 24.4955 47.6122 23.449 47.6122 22.1619C47.6122 20.8748 48.6537 19.8284 49.9347 19.8284C51.2158 19.8284 52.2573 20.8748 52.2573 22.1619C52.2573 23.449 51.2158 24.4955 49.9347 24.4955ZM23.2251 62.9993H25.5476V65.3329H23.2251V62.9993ZM18.5799 62.9993H20.9025V65.3329H18.5799V62.9993ZM13.9347 62.9993H16.2573V65.3329H13.9347V62.9993Z" fill="white"/>
<path d="M46.4509 55.9985H48.7735V58.3321H46.4509V55.9985Z" fill="white"/>
<path d="M16.2573 30.3293H55.7412V34.9965H16.2573V30.3293Z" fill="white"/>
<path d="M16.0001 44.8963H25.4118V41.9352C25.4118 40.3026 26.9953 38.9741 28.9412 38.9741H43.0589C45.0048 38.9741 46.5883 40.3026 46.5883 41.9352V49.8314C46.5883 50.1786 46.5037 50.5087 46.3719 50.8185H54.8235C55.2374 50.8185 55.6308 50.8894 56 51V37H16L16.0001 44.8963Z" fill="white"/>
<path d="M34.8379 41.9973H37.1605V44.3309H34.8379V41.9973Z" fill="white"/>
<path d="M13.9347 48.998H18.5799V53.6652H13.9347V48.998Z" fill="white"/>
<path d="M35.9992 53.6651H42.9669C43.6077 53.6651 44.1282 53.1422 44.1282 52.4984V43.1641C44.1282 42.5203 43.6077 41.9973 42.9669 41.9973H39.483V46.6644H32.5153V41.9973H29.0314C28.3906 41.9973 27.8701 42.5203 27.8701 43.1641V46.879C29.2185 47.3619 30.1927 48.6453 30.1927 50.1648V53.6651H35.9992Z" fill="white"/>
<path d="M30.1927 20.9951H34.8379V23.3287H30.1927V20.9951Z" fill="white"/>
<path d="M30.1927 16.3281H34.8379V18.6617H30.1927V16.3281Z" fill="white"/>
<path d="M5.82964 23.002L33.2467 6.58708C34.0793 6.09015 35.0316 5.82659 36.0001 5.82659C36.9685 5.82659 37.9199 6.09016 38.7524 6.58708L66.1721 23.0007C67.2313 23.632 68.7234 23.2455 69.3517 22.1829C69.6674 21.6474 69.7571 21.0208 69.6036 20.415C69.4491 19.8092 69.0717 19.3019 68.5388 18.9846L37.5635 0.425432C36.6195 -0.141811 35.3794 -0.141811 34.4373 0.425432L3.46339 18.9846C2.92681 19.3034 2.5494 19.8118 2.3949 20.4175C2.2404 21.0233 2.32854 21.651 2.64582 22.1838C3.27417 23.2506 4.76521 23.6392 5.83001 23.0021L5.82964 23.002Z" fill="white"/>
<path d="M37.1606 20.9951H41.8058V23.3287H37.1606V20.9951Z" fill="white"/>
<path d="M37.1606 16.3281H41.8058V18.6617H37.1606V16.3281Z" fill="white"/>
</svg>
