<svg width="80" height="56" viewBox="0 0 80 56" fill="none" xmlns="http://www.w3.org/2000/svg">
<path d="M39.9689 40.1629C39.1395 40.1629 38.31 39.9928 37.523 39.6729L15.102 30.3157V47.1541C15.102 50.3512 18.037 52.7384 23.8015 54.2518C28.1195 55.3816 33.8629 56 39.9891 56C44.1586 56 64.8769 55.5738 64.8769 47.1542V30.3157L42.4364 39.673C41.6502 39.9929 40.7987 40.163 39.9691 40.163L39.9689 40.1629Z" fill="white"/>
<path d="M79.8315 17.1211C79.7254 16.865 79.576 16.6311 79.385 16.4388C79.2788 16.3324 79.1939 16.2465 79.0657 16.1827C78.9596 16.0976 78.8314 16.0338 78.704 15.9913L78.6828 15.97L40.798 0.176097C40.2666 -0.0586991 39.6918 -0.0586991 39.1603 0.176097L1.29727 15.9707C0.510252 16.3118 0 17.0792 0 17.9316C0 18.8053 0.510252 19.5727 1.29727 19.9138L39.1603 35.7298C39.4159 35.8361 39.6918 35.8999 39.9686 35.8999C40.2453 35.8999 40.5425 35.8361 40.798 35.7298L75.7465 21.1509V34.1525C75.7465 35.3248 76.7042 36.2836 77.8733 36.2836C79.0644 36.2836 80 35.324 80 34.1525V17.9317C80 17.7829 79.9788 17.6544 79.9576 17.5268C79.9372 17.3771 79.8947 17.2486 79.8311 17.121L79.8315 17.1211Z" fill="white"/>
</svg>
