<svg width="80" height="70" viewBox="0 0 80 70" fill="none" xmlns="http://www.w3.org/2000/svg">
<path fill-rule="evenodd" clip-rule="evenodd" d="M49.3437 26.1672C50.2531 31.5991 54.274 35.6765 59.1566 35.6765C64.0331 35.6765 68.0602 31.5991 68.9632 26.1672C68.3646 26.2706 67.6198 26.3769 66.6591 26.4861C64.7733 26.7068 62.2333 26.8906 59.1514 26.8906C56.0702 26.8906 53.5239 26.7075 51.6438 26.4861C50.6876 26.3754 49.9415 26.2706 49.3436 26.1672H49.3437Z" fill="white"/>
<path fill-rule="evenodd" clip-rule="evenodd" d="M59.156 5.90137C57.1127 5.90137 55.4749 7.43888 55.4749 9.34837V12.7054C55.4749 13.8621 54.4257 13.9233 54.1523 12.7667L53.5961 10.4268C51.1237 12.3924 49.5544 15.5635 49.3221 19.043C48.0197 19.0009 47.1016 20.0705 47.1016 21.4131C47.1016 22.6251 47.5958 23.5013 48.4672 23.7766C49.2272 24.0151 53.117 24.7443 59.1558 24.7443C65.1877 24.7443 69.0763 24.0143 69.8382 23.7766C70.7153 23.5013 71.2082 22.6259 71.2082 21.4131C71.2082 20.0705 70.29 19.0001 68.9827 19.043C68.7517 15.5643 67.1817 12.3933 64.7137 10.4268L64.1574 12.7667C63.8841 13.9226 62.8349 13.8628 62.8349 12.7054V9.34837C62.8355 7.4395 61.1914 5.90137 59.1557 5.90137H59.156Z" fill="white"/>
<path d="M65.3508 37.0781L59.7645 42.0576C59.3968 42.3883 58.8988 42.3883 58.5305 42.0576L52.9491 37.0842L43.116 41.6827C42.9698 41.7565 42.8375 41.8237 42.7059 41.8975L50.8799 45.7143C53.6169 46.9935 55.2171 49.4994 55.9411 52.0327L58.3673 60.5322C58.6236 60.5395 58.9027 60.5565 59.1545 60.5565C65.7015 60.5565 75.2714 58.7872 78.6462 57.9037C79.4372 57.6217 80.3041 56.8371 79.8954 54.7808L77.9209 45.1113C77.5855 43.4579 76.8515 42.4615 75.1909 41.6821L65.3508 37.0781Z" fill="white"/>
<path fill-rule="evenodd" clip-rule="evenodd" d="M28.1398 0C25.3838 0 23.1666 2.07629 23.1666 4.65238V9.18516C23.1666 10.7463 21.7567 10.8208 21.3826 9.26487L20.6365 6.10414C17.2979 8.7613 15.1824 13.0367 14.8717 17.7392C13.1073 17.6779 11.869 19.1239 11.869 20.9294C11.869 22.571 12.536 23.7526 13.7168 24.1196C14.7407 24.4444 19.9905 25.4238 28.139 25.4238C36.2814 25.4238 41.5349 24.4444 42.5601 24.1196C43.7365 23.7527 44.4079 22.571 44.4079 20.9294C44.4079 19.1232 43.1689 17.6772 41.4053 17.7392C41.0945 13.0358 38.974 8.7613 35.6417 6.10414L34.8899 9.26487C34.5229 10.8194 33.1047 10.7463 33.1047 9.18516V4.65238C33.1053 2.07629 30.8948 0 28.1397 0H28.1398Z" fill="white"/>
<path fill-rule="evenodd" clip-rule="evenodd" d="M14.8996 27.3484C16.1222 34.6795 21.5511 40.1829 28.1404 40.1829C34.7235 40.1829 40.1568 34.6795 41.3805 27.3484C40.5674 27.4894 39.5593 27.6244 38.2627 27.7765C35.7213 28.0703 32.2922 28.3279 28.1352 28.3279C23.977 28.3279 20.5371 28.0703 17.9976 27.7765C16.7118 27.6311 15.7037 27.4901 14.8994 27.3484H14.8996Z" fill="white"/>
<path fill-rule="evenodd" clip-rule="evenodd" d="M11.7503 58.9163H44.5259V65.6945C39.7754 66.3986 32.3937 66.9559 28.1414 66.9559C23.8839 66.9559 16.506 66.3972 11.7503 65.6945V58.9163ZM36.5037 42.0745L28.9651 48.7937C28.4671 49.2403 27.8008 49.2403 27.297 48.7937L19.7621 42.0813L16.5285 43.6003V55.3882H11.7515V45.8354L6.49089 48.2977C4.24883 49.3451 3.42426 50.7425 2.80542 52.9161L0.143137 62.2106C-0.413101 64.9912 0.75823 66.0444 1.82825 66.4246C6.38511 67.6182 19.2998 70.0001 28.1417 70.0001C36.9776 70.0001 49.8916 67.6183 54.4551 66.4246C55.5208 66.0445 56.6922 64.9912 56.1352 62.2106L53.4781 52.9161C52.8529 50.7423 52.0283 49.3451 49.787 48.2977L44.5264 45.8354V55.3882H39.7544L39.755 43.6011L36.5037 42.0745Z" fill="white"/>
</svg>
