<svg width="120" height="120" viewBox="0 0 120 120" fill="none" xmlns="http://www.w3.org/2000/svg">
<path d="M110.894 85.3689L87.2105 79.0287V68.8426C87.6497 68.4609 88.0889 68.0793 88.5013 67.6623C92.7608 63.3716 95.0778 57.72 95.0278 51.7494L94.9314 40.2954H97.1374C100.36 40.2954 102.979 37.791 102.979 34.7146V34.2232C102.979 31.1665 100.393 28.6756 97.1983 28.6437C96.0489 19.2186 89.6751 11.0627 80.8195 7.74871L80.429 6.16485L80.3644 6.1807L80.0508 4.90654C79.736 3.62383 78.9173 2.39234 77.746 1.44365C76.5991 0.512098 75.2448 0 73.9332 0H70.0558C68.7283 0 67.4093 0.499925 66.2429 1.44365C65.0729 2.39471 64.253 3.62498 63.9394 4.90779L63.6319 6.16977L63.6209 6.16855L63.2366 7.72804C54.3469 11.0261 47.9488 19.2017 46.7969 28.6499C43.605 28.6816 41.0172 31.1726 41.0172 34.2294V34.722C41.0172 37.7983 43.638 40.3028 46.859 40.3028H48.8686L48.9662 51.7849C49.0235 58.7397 52.213 64.9644 57.1665 69.1184V79.036L33.4857 85.369C32.7463 85.5666 32.0484 85.8397 31.3786 86.1518L31.3798 80.9029C34.4495 78.7618 36.8324 75.8234 38.3051 72.3446C42.395 62.6779 38.2404 51.4433 28.8482 46.7696L26.3226 45.5113L26.3153 57.569C26.3153 58.5725 25.92 59.5175 25.205 60.2308C24.4876 60.9477 23.542 61.3403 22.5391 61.3403L17.3622 61.3367C16.3605 61.3367 15.4137 60.9428 14.6988 60.2271C13.9838 59.5101 13.5897 58.5652 13.5897 57.5629L13.5946 45.5015L11.0653 46.7598C6.80832 48.8752 3.44561 52.4513 1.59371 56.8301C-2.10447 65.5687 0.8104 75.5279 8.50436 80.8967L8.4885 116.677L11.9865 116.679L12.0023 78.9939L11.1836 78.4781C4.33888 74.1778 1.65958 65.6464 4.81333 58.1927C5.95046 55.5005 7.78184 53.1779 10.0926 51.4477L10.0914 57.5625C10.0902 59.4976 10.8491 61.3229 12.2253 62.6994C13.6004 64.0748 15.4256 64.8332 17.3619 64.8332L22.5387 64.8369H22.5399C24.4762 64.8369 26.3002 64.0784 27.6789 62.7043C29.0577 61.329 29.8166 59.5061 29.8166 57.5687L29.8202 51.4526C35.7426 55.8909 38.0668 63.9407 35.0886 70.9807C33.7684 74.096 31.56 76.692 28.7073 78.483L27.8874 78.9963L27.8838 88.6434C25.6986 90.8637 24.3893 93.8789 24.3893 97.2188V119.935H27.8872L27.886 97.2222C27.886 93.195 30.5007 89.7896 34.3965 88.7445L40.3139 87.1606V91.0393H38.6265V101.528H40.3139V105.692H36.4902V119.684H39.9881V109.187H43.8119V101.528H49.5269V108.532H93.602V101.528H99.3061V109.187H103.13V119.684H106.628V105.692H102.804V101.528H105.095V91.0393H102.804L102.803 86.8192L109.994 88.7457C113.887 89.7906 116.502 93.1962 116.502 97.2234V120H120V97.2234C119.994 91.5902 116.336 86.8254 110.893 85.3683L110.894 85.3689ZM46.8597 36.7998C45.5676 36.7998 44.5159 35.8646 44.5159 34.7148V34.2234C44.5159 33.0736 45.5676 32.1396 46.8597 32.1396H50.0503L50.1431 30.4899C50.586 22.5756 55.2943 15.5021 62.189 11.9943L60.4211 19.1807L63.8166 20.0159L66.1763 10.4226L66.1933 10.4177L67.339 5.74061C67.4708 5.20167 67.8759 4.62496 68.4493 4.1604C68.9764 3.73242 69.5474 3.49831 70.0562 3.49831H73.9336C74.4449 3.49831 75.0146 3.73242 75.5405 4.1604C76.1176 4.62739 76.5239 5.20414 76.6545 5.74061L77.7989 10.4177L77.8795 10.4446L80.2355 20.0185L83.631 19.1833L81.8728 12.0347C88.7298 15.5547 93.4112 22.6047 93.8529 30.4937L93.9456 32.1435H97.1375C98.4296 32.1435 99.4813 33.0787 99.4813 34.2272V34.7198C99.4813 35.8696 98.4296 36.8048 97.1375 36.8048H94.9035L48.8387 36.8036H46.8585L46.8597 36.7998ZM52.466 51.7498L52.3696 40.2958H91.4347L91.5287 51.7779C91.5702 56.8099 89.6131 61.575 86.0173 65.2024C82.3657 68.8797 77.5219 70.9074 72.3741 70.9074H71.62C61.1468 70.9086 52.551 62.3151 52.4657 51.7498H52.466ZM71.6203 74.4043H72.3744C76.4202 74.4043 80.293 73.3252 83.7103 71.3414V79.3266C80.7333 81.4507 76.696 82.67 72.4952 82.67C67.9444 82.67 63.6899 81.2788 60.6639 78.8572V71.5256C63.9192 73.3521 67.6526 74.4044 71.6204 74.4044L71.6203 74.4043ZM43.8056 86.2279L49.5206 84.6965V91.0417H43.8056V86.2279ZM42.1182 94.5349H50.8639V98.0306H42.1182V94.5349ZM90.0946 105.036H53.016V101.528H54.3605V91.0392H53.016V83.7576L59.147 82.1164C62.7243 84.7038 67.4863 86.1671 72.4948 86.1671C77.3727 86.1671 82.0994 84.732 85.6536 82.2326L90.0949 83.4214V91.0407H87.5937V101.529H90.0949L90.0946 105.036ZM101.588 94.5349V98.0306H91.0925V94.5349H101.588ZM99.2966 91.0392H93.5926V84.3563L99.2966 85.8841V91.0392Z" fill="#203362"/>
<path d="M63.1111 28.1129H80.5706V31.6086H63.1111V28.1129Z" fill="#203362"/>
</svg>
