<svg width="13" height="16" viewBox="0 0 13 16" fill="none" xmlns="http://www.w3.org/2000/svg">
<path fill-rule="evenodd" clip-rule="evenodd" d="M6.4998 0C4.77611 0.000655426 3.12336 0.679286 1.90458 1.88674C0.685743 3.09417 0.00067751 4.73147 0 6.43892C0 7.98864 0.978935 9.84843 2.19266 11.5062C3.36337 13.0647 4.67127 14.5172 6.10122 15.8466C6.21012 15.9452 6.35238 16 6.49993 16C6.64749 16 6.78973 15.9452 6.89865 15.8466C8.32857 14.5172 9.6366 13.0647 10.8072 11.5062C12.0209 9.8485 12.9999 7.98864 12.9999 6.43892C12.9991 4.73137 12.3142 3.0941 11.0953 1.88674C9.87644 0.679319 8.22339 0.000671164 6.4998 0ZM6.4998 4.2927C7.0745 4.2927 7.62548 4.51883 8.03189 4.92125C8.43812 5.32381 8.66651 5.86967 8.66651 6.43898C8.66651 7.0083 8.43812 7.55412 8.03189 7.95672C7.62552 8.35915 7.0745 8.5854 6.4998 8.5854C5.92524 8.5854 5.37411 8.35915 4.96771 7.95672C4.56148 7.55416 4.33322 7.0083 4.33322 6.43898C4.33335 5.8698 4.56175 5.32395 4.96798 4.92151C5.37421 4.51908 5.92524 4.29284 6.4998 4.2927Z" fill="#203362"/>
</svg>
