<svg width="16" height="12" viewBox="0 0 16 12" fill="none" xmlns="http://www.w3.org/2000/svg">
<path d="M0.21137 1.49591C0.401007 1.03878 0.726289 0.650337 1.14302 0.383499C1.55977 0.116445 2.04839 -0.0165238 2.543 0.00221535H7.98022H13.4174C13.9054 -0.0185331 14.3886 0.106849 14.8051 0.362081C15.2217 0.617313 15.5525 0.990795 15.7556 1.4352C15.8381 1.54965 15.86 1.6969 15.8142 1.83054C15.7685 1.96395 15.6608 2.06703 15.5253 2.10674L8.31637 5.87137C8.13097 5.97756 7.90341 5.97756 7.71822 5.87137L0.412733 2.07481C0.297168 2.03911 0.205472 1.95054 0.165761 1.83631C0.126049 1.72186 0.142878 1.59564 0.21137 1.49591ZM0.68792 3.89785C2.9589 5.08566 5.22759 6.269 7.49423 7.44807C7.64683 7.53843 7.82085 7.58617 7.99799 7.58617C8.17535 7.58617 8.34937 7.53843 8.50175 7.44807C10.7578 6.26472 13.0169 5.09188 15.2789 3.92972C15.345 3.89291 15.4161 3.86614 15.49 3.84985C15.6125 3.80791 15.7477 3.83111 15.8492 3.91121C15.9507 3.99152 16.0047 4.1178 15.9922 4.24653V8.76592C16.0105 9.15657 15.9966 9.5481 15.9507 9.93653C15.8597 10.5166 15.5625 11.0443 15.1136 11.4228C14.6645 11.8012 14.094 12.0049 13.5071 11.9962H9.05814H2.53627C1.98164 12.0087 1.43882 11.8342 0.9955 11.5005C0.552197 11.1669 0.234282 10.6937 0.0928101 10.1571C0.0343594 9.94875 0.00312415 9.73368 0 9.5175V4.29446C0 3.85629 0.281556 3.68985 0.687598 3.89779L0.68792 3.89785Z" fill="#203362"/>
</svg>
