<svg width="112" height="80" viewBox="0 0 112 80" fill="none" xmlns="http://www.w3.org/2000/svg">
<path fill-rule="evenodd" clip-rule="evenodd" d="M112 0H12V30.219L0 40L12 49.781V80H112V0Z" fill="#A99743"/>
<path d="M43.8668 23.961C43.8668 27.3321 41.1386 30.0641 37.7734 30.0641C34.4077 30.0641 31.6801 27.3321 31.6801 23.961C31.6801 20.5905 34.4077 17.858 37.7734 17.858C41.1386 17.858 43.8668 20.5905 43.8668 23.961Z" fill="white"/>
<path d="M41.2532 31.6669H34.3063C31.9331 31.6669 30 33.59 30 35.967V47.5855C30 48.5737 30.4266 49.5216 31.1602 50.1761L32.9337 51.7921L33.7738 63.7579C33.827 64.4521 34.4006 65 35.1073 65H40.4539C41.1605 65 41.7341 64.4526 41.7874 63.7579L42.6139 51.7921L44.4005 50.1761C45.1337 49.5217 45.5608 48.5737 45.5608 47.5855L45.5603 35.967C45.5603 33.59 43.6272 31.6669 41.2535 31.6669H41.2532Z" fill="white"/>
<path d="M90.5873 15H54.1199C52.2265 15 50.7064 16.5361 50.7064 18.4189V43.3793C50.7064 45.2622 52.2265 46.7982 54.1199 46.7982H65.57L63.0512 58.5916C62.8974 59.3129 63.3563 60.022 64.0765 60.1761C64.1703 60.1969 64.2641 60.2061 64.3565 60.2061C64.9717 60.2061 65.525 59.7769 65.6594 59.1496L68.2976 46.7981H76.4039L79.0422 59.1496C79.1762 59.7769 79.73 60.2061 80.3451 60.2061C80.4375 60.2061 80.5313 60.1969 80.6251 60.1761C81.3453 60.022 81.8042 59.3129 81.6504 58.5916L79.1316 46.7982H90.5875C92.467 46.7982 94 45.2621 94 43.3793V18.4189C94 16.536 92.4669 15 90.5865 15H90.5873ZM60.0802 40.7032C60.0802 41.4409 59.4834 42.0387 58.7467 42.0387C58.0102 42.0387 57.4133 41.441 57.4133 40.7032V29.3482C57.4133 28.6105 58.0101 28.0127 58.7467 28.0127C59.4833 28.0127 60.0802 28.6104 60.0802 29.3482V40.7032ZM64.2152 40.7032V34.7266C64.2152 33.9889 64.812 33.391 65.5487 33.391C66.2853 33.391 66.8821 33.9888 66.8821 34.7266V40.7032C66.8821 41.4409 66.2853 42.0387 65.5487 42.0387C64.8121 42.0387 64.2152 41.4405 64.2152 40.7032ZM73.684 40.7032C73.684 41.4409 73.0871 42.0387 72.3505 42.0387C71.6139 42.0387 71.0171 41.441 71.0171 40.7032V32.695C71.0171 31.9572 71.6139 31.3594 72.3505 31.3594C73.0871 31.3594 73.684 31.9572 73.684 32.695V40.7032ZM80.4863 40.7032C80.4863 41.4409 79.8895 42.0387 79.1528 42.0387C78.4162 42.0387 77.8194 41.441 77.8194 40.7032V26.002C77.8194 25.2643 78.4162 24.6664 79.1528 24.6664C79.8894 24.6664 80.4863 25.2642 80.4863 26.002V40.7032ZM87.2882 40.7032C87.2882 41.4409 86.6914 42.0387 85.9548 42.0387C85.2182 42.0387 84.6213 41.441 84.6213 40.7032V37.4761C84.6213 36.7384 85.2181 36.1405 85.9548 36.1405C86.6913 36.1405 87.2882 36.7383 87.2882 37.4761V40.7032Z" fill="white"/>
</svg>
