<svg width="14" height="14" viewBox="0 0 14 14" fill="none" xmlns="http://www.w3.org/2000/svg">
<path fill-rule="evenodd" clip-rule="evenodd" d="M9.46488 9.46384C8.51511 10.4136 7.25152 10.9371 5.90795 10.9371C4.56439 10.9371 3.30176 10.4136 2.35199 9.46384C0.390705 7.50255 0.390705 4.31203 2.35199 2.351C3.33255 1.37027 4.61977 0.880389 5.90795 0.880389C7.19614 0.880389 8.48432 1.37107 9.46488 2.351C11.4262 4.31212 11.4262 7.50281 9.46488 9.46384ZM13.872 13.2481L10.3837 9.7598C12.382 7.43991 12.2868 3.92788 10.0877 1.72811C7.7837 -0.576038 4.03298 -0.576038 1.72874 1.72811C-0.576248 4.03294 -0.576248 7.78282 1.72874 10.0871C2.84499 11.2033 4.32873 11.8184 5.90767 11.8184C7.33859 11.8184 8.68925 11.309 9.7606 10.3831L13.2489 13.8713C13.3353 13.9577 13.448 14 13.56 14C13.6727 14 13.7855 13.9577 13.8718 13.8713C14.0436 13.6994 14.0436 13.4201 13.8718 13.2484" fill="#BBBBBB"/>
</svg>
