<svg width="180" height="120" viewBox="0 0 180 120" fill="none" xmlns="http://www.w3.org/2000/svg">
<path fill-rule="evenodd" clip-rule="evenodd" d="M135.542 36.9036C134.385 36.905 133.45 37.8342 133.45 38.9824V59.2182C133.45 60.3649 134.385 61.2956 135.542 61.2956H164.319C165.103 61.2956 165.82 60.8621 166.179 60.1707C166.538 59.4792 166.478 58.647 166.026 58.0135L151.531 37.7778C151.138 37.2298 150.503 36.9036 149.826 36.9036L135.542 36.9036ZM137.635 41.0597H148.746L160.262 57.1379H137.633V41.0597H137.635Z" fill="#203362"/>
<path fill-rule="evenodd" clip-rule="evenodd" d="M11.21 0C5.05114 0 0 5.01599 0 11.132V83.2693C0 89.3853 5.05114 94.4013 11.21 94.4013H25.8537C27.2536 102.102 34.0549 107.982 42.2138 107.982C50.3683 107.982 57.177 102.105 58.5785 94.4013H135.078C136.48 102.103 143.294 107.982 151.443 107.982C159.592 107.982 166.406 102.103 167.807 94.4013H171.146C176.007 94.4013 179.981 90.4322 179.981 85.6263V59.0322H179.983C180.022 58.735 179.994 58.432 179.904 58.1464C179.892 58.1029 179.879 58.0609 179.863 58.0188H179.858C179.858 58.0188 179.858 58.0174 179.857 58.0174C179.764 57.7535 179.616 57.5129 179.425 57.307L156.922 26.3V26.2986C156.529 25.7578 155.898 25.436 155.225 25.436L126.04 25.4172V11.1393C126.04 5.02329 120.989 0.00729364 114.83 0.00729364H11.2101L11.21 0ZM11.21 4.15612H114.83C118.712 4.15612 121.855 7.27579 121.855 11.132V90.2463H58.7978C58.1643 81.7032 50.9584 74.9348 42.2142 74.9348C33.4711 74.9348 26.264 81.7032 25.6306 90.2463H11.2104C7.32857 90.2463 4.18562 87.1266 4.18562 83.2704V11.1331C4.18562 7.27682 7.32715 4.15723 11.2104 4.15723L11.21 4.15612ZM126.042 29.566L154.154 29.5848L175.799 59.4073V85.6258C175.799 88.1642 173.724 90.2443 171.149 90.2443H168.03C167.396 81.7013 160.189 74.9329 151.446 74.9329C142.703 74.9329 135.496 81.7013 134.862 90.2443H126.042L126.042 29.566ZM42.2172 79.0913C49.1089 79.0913 54.6608 84.6016 54.6608 91.4698V91.7018C54.5353 98.4357 49.039 103.827 42.2172 103.827C35.324 103.827 29.7956 98.3355 29.7736 91.5103V91.4755C29.7736 84.6069 35.3251 79.097 42.2172 79.097V79.0913ZM151.447 79.0913C158.339 79.0913 163.89 84.6016 163.89 91.4698C163.89 98.3151 158.339 103.827 151.447 103.827C144.555 103.827 139.003 98.3139 139.003 91.4698C139.003 84.6012 144.555 79.0913 151.447 79.0913Z" fill="#203362"/>
<path fill-rule="evenodd" clip-rule="evenodd" d="M65.9518 29.1215C65.3912 29.1128 64.8511 29.3288 64.4526 29.7187C64.0541 30.1102 63.8292 30.6422 63.8292 31.1989C63.8292 31.7555 64.054 32.289 64.4526 32.679C64.8511 33.0704 65.3912 33.2849 65.9518 33.2777H106.997C107.558 33.2849 108.098 33.0704 108.496 32.679C108.896 32.289 109.12 31.7555 109.12 31.1989C109.12 30.6422 108.896 30.1102 108.496 29.7187C108.098 29.3288 107.558 29.1128 106.997 29.1215H65.9518Z" fill="#203362"/>
<path fill-rule="evenodd" clip-rule="evenodd" d="M47.1726 47.7699C46.6121 47.7612 46.0719 47.9772 45.6734 48.3686C45.2749 48.7586 45.05 49.2921 45.05 49.8473C45.05 50.404 45.2749 50.9374 45.6734 51.3274C46.0719 51.7188 46.6121 51.9334 47.1726 51.9261H106.997C107.558 51.9334 108.098 51.7188 108.496 51.3274C108.896 50.9374 109.12 50.404 109.12 49.8473C109.12 49.2921 108.896 48.7586 108.496 48.3686C108.098 47.9772 107.558 47.7612 106.997 47.7699H47.1726Z" fill="#203362"/>
<path fill-rule="evenodd" clip-rule="evenodd" d="M8.30997 115.844C7.7494 115.835 7.20927 116.051 6.81074 116.441C6.41221 116.832 6.18738 117.364 6.18738 117.921C6.18738 118.478 6.41219 119.011 6.81074 119.401C7.20927 119.792 7.7494 120.007 8.30997 120H167.3C167.861 120.007 168.401 119.792 168.799 119.401C169.199 119.011 169.423 118.478 169.423 117.921C169.423 117.364 169.199 116.832 168.799 116.441C168.401 116.051 167.861 115.835 167.3 115.844H8.30997Z" fill="#203362"/>
</svg>
