<svg width="110" height="120" viewBox="0 0 110 120" fill="none" xmlns="http://www.w3.org/2000/svg">
<path d="M53.9933 94.5766C54.5815 94.5657 55.1266 94.2697 55.4509 93.783L58.2626 89.492C59.3529 89.3704 60.4349 89.187 61.5049 88.9427L65.6094 92.115V92.1159C66.0602 92.5481 66.7089 92.7106 67.3126 92.5426C68.7291 91.9643 70.1006 91.2851 71.4171 90.5088C71.9494 90.2237 72.2921 89.6835 72.3205 89.0852L72.5871 83.9806C73.4721 83.3487 74.3214 82.6696 75.1314 81.9468L80.2208 82.6587H80.2217C80.8456 82.7395 81.4677 82.4934 81.8635 82.0077L82.5818 81.1333C83.3001 80.1772 83.9771 79.2212 84.6341 78.286C84.9419 77.7648 84.9419 77.1184 84.6341 76.5972L82.2741 72.041V72.0419C82.7276 71.0495 83.1179 70.0308 83.4431 68.9912L88.2459 67.0791C88.8203 66.8621 89.2344 66.359 89.3334 65.7571C89.436 65.0652 89.5185 64.3743 89.6 63.7233C89.6101 63.608 89.6101 63.4927 89.6 63.3773C89.6531 63.262 89.688 63.1386 89.7026 63.0114C89.7026 62.3196 89.8254 61.6077 89.8465 60.9776C89.8648 60.372 89.5606 59.8009 89.0466 59.4731L84.6956 56.6867C84.5728 55.6063 84.3878 54.5331 84.1413 53.4735L87.3222 49.4059C87.7015 48.9347 87.8032 48.3019 87.5888 47.738C87.3634 47.1279 87.0959 46.5177 86.8293 45.9076C86.4325 45.0369 85.3991 44.6501 84.5205 45.0432C83.6427 45.4363 83.2515 46.4605 83.6482 47.3312C83.771 47.5755 83.8736 47.7988 83.9762 48.0431L80.8988 51.8664C80.5671 52.294 80.4535 52.8497 80.591 53.3718C80.9648 54.79 81.2048 56.241 81.3092 57.7037C81.3578 58.2367 81.6537 58.7179 82.1091 59.0048L86.3363 61.7096V62.6448L86.3372 62.6457C86.3271 62.761 86.3271 62.8763 86.3372 62.9917C86.3253 63.0997 86.3253 63.2087 86.3372 63.3167C86.3372 63.6417 86.3372 63.9468 86.2346 64.2519L81.4318 66.1032C80.9169 66.2911 80.5257 66.716 80.3855 67.2417C79.9971 68.6409 79.4822 70.0028 78.8463 71.3093C78.5907 71.7942 78.5907 72.3717 78.8463 72.8556L81.124 77.2691C80.7337 77.8383 80.3232 78.4285 79.8725 79.0178L74.9058 78.3059C74.3671 78.2278 73.821 78.4004 73.428 78.7735C72.3881 79.804 71.2548 80.7365 70.0416 81.56C69.5854 81.8605 69.3032 82.3598 69.2821 82.9019L69.0155 87.8648C68.3586 88.1899 67.6751 88.495 66.9632 88.7801L63.0025 85.7094C62.582 85.3743 62.0277 85.2536 61.5046 85.3834C60.0707 85.7493 58.6084 85.9945 57.1334 86.1161C56.5974 86.157 56.1118 86.4421 55.8196 86.8888L53.0902 90.9564C52.3417 90.9273 51.595 90.8592 50.8528 90.753L48.9646 86.4411C48.7639 85.9381 48.3397 85.5549 47.8157 85.4042C46.4057 85.0147 45.0324 84.5045 43.7112 83.8789C43.2274 83.6355 42.6557 83.6355 42.172 83.8789L37.7185 86.136C37.123 85.7492 36.5284 85.3425 35.9539 84.8958L36.5284 79.8313C36.6017 79.3001 36.4193 78.7653 36.0355 78.3876C35.0066 77.3462 34.0721 76.2167 33.2449 75.011C32.937 74.5643 32.4359 74.2856 31.8907 74.2584L26.8828 73.9941C26.5548 73.3431 26.247 72.6658 25.9593 71.9603L29.0789 68.137C29.4078 67.7166 29.5288 67.171 29.4069 66.6525C29.0331 65.2325 28.7857 63.7833 28.6685 62.3206C28.6272 61.7895 28.3387 61.3083 27.8888 61.0186L23.6616 58.3138V57.4394V57.1144L23.6607 57.1135C23.7047 57.0018 23.7386 56.8856 23.7633 56.7675C23.7633 56.4824 23.7633 56.1774 23.8659 55.8932L28.566 53.9002C29.068 53.6987 29.4464 53.2783 29.5921 52.7617C29.9961 51.3671 30.511 50.0069 31.1313 48.6941C31.3667 48.2119 31.3667 47.6499 31.1313 47.1687L28.8326 42.7352C29.243 42.1251 29.6736 41.515 30.1253 40.9248L35.092 41.6166V41.6157C35.6307 41.6911 36.1749 41.5195 36.5698 41.1481C37.6179 40.1194 38.7576 39.187 39.9761 38.3617C40.4195 38.053 40.6925 37.5564 40.7154 37.0198L40.9619 32.0568H41.0645C41.7415 31.7318 42.3783 31.4267 43.0141 31.1616L46.9547 34.2323L46.9538 34.2332C47.3798 34.5737 47.9469 34.6872 48.4728 34.5383C49.8984 34.1714 51.3542 33.9326 52.8238 33.8264C53.369 33.7847 53.8628 33.4905 54.1578 33.0338L56.8872 28.8446C57.6668 28.8446 58.4062 28.9663 59.1245 29.0679L60.9917 33.6848V33.6839C61.1997 34.1778 61.622 34.5519 62.1406 34.7008C63.5515 35.0903 64.9248 35.6006 66.2451 36.2262C66.7316 36.4595 67.2987 36.4595 67.7843 36.2262L72.2579 33.9481C72.7912 34.294 73.3253 34.6799 73.8585 35.0667L73.8594 35.0676C74.2167 35.4263 74.7151 35.6115 75.2236 35.5761C75.7312 35.5397 76.1984 35.2864 76.5008 34.8806C76.8041 34.4756 76.9131 33.959 76.8004 33.4669C76.6868 32.9748 76.3624 32.5562 75.9117 32.322C75.055 31.6564 74.1562 31.0454 73.2226 30.4915C72.694 30.1974 72.049 30.1974 71.5194 30.4915L66.9017 32.8303C65.8958 32.399 64.8678 32.0195 63.8234 31.6908L61.8939 26.9522C61.6767 26.3938 61.1765 25.9916 60.581 25.8944C59.0684 25.6311 57.5392 25.474 56.0046 25.4268C55.3898 25.396 54.8071 25.7001 54.4855 26.2204L51.6738 30.5523C50.5827 30.6576 49.4997 30.8337 48.4315 31.0807L44.327 27.9284C43.8478 27.5634 43.2138 27.4644 42.6439 27.6642C41.5528 28.0673 40.4836 28.5295 39.4429 29.047L38.3966 29.5963H38.3957C37.8524 29.8823 37.5015 30.4316 37.4722 31.0399L37.2257 36.1445L37.2267 36.1454C36.3435 36.78 35.4942 37.4583 34.6814 38.1792L29.5709 37.4673C28.9745 37.3938 28.3808 37.6235 27.9914 38.0775C27.023 39.2251 26.1316 40.4346 25.3235 41.6974C25.0267 42.2222 25.0267 42.8614 25.3235 43.3853L27.6835 47.9615C27.2483 48.9566 26.8717 49.9753 26.5547 51.0122L21.732 52.9243C21.1787 53.1486 20.7829 53.6416 20.6849 54.2255C20.5621 54.8964 20.4796 55.5883 20.3972 56.2593H20.3981C20.3761 56.3873 20.3761 56.518 20.3981 56.6461C20.3449 56.755 20.3101 56.8721 20.2955 56.992C20.2955 57.6838 20.1727 58.3748 20.1727 59.0258H20.1718C20.1525 59.6214 20.4485 60.1843 20.9515 60.5103L25.3025 63.2967C25.4252 64.3953 25.6103 65.4522 25.8357 66.5099L22.6346 70.5775C22.2627 71.0587 22.1628 71.6943 22.368 72.2654C22.8866 73.7154 23.5032 75.129 24.2151 76.4955C24.5027 77.023 25.0479 77.3626 25.6516 77.3907L30.8024 77.6549C31.4401 78.532 32.1254 79.3746 32.8547 80.1773L32.1163 85.2418V85.2409C32.0301 85.8338 32.2638 86.4285 32.7319 86.8072L33.6756 87.5599C34.5936 88.2907 35.5538 88.9699 36.5487 89.5937C37.0746 89.8996 37.727 89.8996 38.2528 89.5937L42.8293 87.2549C43.838 87.7007 44.8733 88.0884 45.9278 88.4144L47.8362 93.1739V93.173C48.0662 93.7432 48.5802 94.1527 49.1912 94.2517C50.724 94.5068 52.2743 94.6502 53.8289 94.6784L53.9933 94.5766Z" fill="#203362"/>
<path d="M45.1067 48.1244C47.5353 46.1387 50.515 44.9294 53.6511 44.657C56.7881 44.3846 59.9342 45.0619 62.6746 46.5991C63.0759 46.8778 63.5771 46.975 64.0553 46.8687C64.5336 46.7625 64.944 46.4611 65.1877 46.0398C65.4305 45.6176 65.4837 45.1146 65.3334 44.6524C65.1832 44.1903 64.8442 43.8117 64.398 43.6101C59.4057 40.8037 53.4009 40.3813 48.0587 42.4606C42.7156 44.5408 38.6064 48.8989 36.8748 54.322C35.1432 59.7461 35.9751 65.6542 39.1387 70.4C42.3022 75.1468 47.4596 78.2238 53.1719 78.774H55.0189C59.7445 78.7658 64.2979 77.0171 67.7952 73.8675C71.2922 70.7178 73.4829 66.3924 73.9409 61.7309C74.0023 60.803 74.0023 59.8723 73.9409 58.9445C73.896 57.9902 73.0779 57.2521 72.1149 57.2975C71.1511 57.342 70.4072 58.1528 70.4521 59.107C70.5034 59.8724 70.5034 60.6406 70.4521 61.4059C69.9619 66.5349 66.9184 71.0829 62.3402 73.5263C57.7619 75.9687 52.2548 75.9831 47.6639 73.5644C43.0729 71.1466 40.0046 66.6141 39.487 61.4878C38.9693 56.3605 41.0701 51.3159 45.0867 48.0437L45.1067 48.1244Z" fill="#203362"/>
<path d="M50.1962 55.9342C49.8874 55.5501 49.4284 55.3141 48.9337 55.2859C48.4389 55.2569 47.9561 55.4384 47.6043 55.7835C47.2516 56.1294 47.0656 56.607 47.0903 57.0982C47.1151 57.5885 47.3487 58.0451 47.7335 58.3548L54.7524 65.4122V65.4113C55.085 65.739 55.5358 65.9224 56.0048 65.9197C56.4666 65.917 56.9082 65.7345 57.2362 65.4113L81.678 41.1474C82.2918 40.4637 82.2607 39.4241 81.6074 38.7768C80.9542 38.1294 79.9051 38.0994 79.2153 38.7068L56.0047 61.6689L50.1962 55.9342Z" fill="#203362"/>
<path d="M4.98549 70.6797L4.80042 69.7037C4.67765 69.1135 4.57504 68.5442 4.49259 67.955L4.4935 67.9541C4.24979 66.9844 3.29972 66.3579 2.30197 66.5114C1.30516 66.6648 0.590536 67.5464 0.655598 68.5443C0.758211 69.1744 0.880979 69.8054 1.00467 70.4355L1.20989 71.4724V71.4733C1.43344 72.3367 2.19845 72.9551 3.09724 72.9986H3.50769C4.01801 72.8915 4.46327 72.5855 4.74087 72.1488C5.01939 71.7121 5.10735 71.1818 4.9855 70.6798L4.98549 70.6797Z" fill="#203362"/>
<path d="M11.6138 86.848C11.0476 85.9491 9.85289 85.6758 8.94586 86.2378C8.03975 86.7999 7.76397 87.9829 8.33018 88.8818C8.86339 89.7362 9.41769 90.5497 9.99213 91.3633H9.99305C10.3714 91.8635 10.9624 92.1641 11.5936 92.1768C11.9903 92.1786 12.3779 92.0578 12.7022 91.8308C13.1209 91.5394 13.4068 91.0954 13.4947 90.596C13.5836 90.0958 13.4681 89.5819 13.174 89.1669C12.6197 88.4751 12.1067 87.6416 11.6138 86.848V86.848Z" fill="#203362"/>
<path d="M8.14731 80.3398C7.75701 79.5063 7.40887 78.6519 7.07995 77.7777C6.90679 77.2937 6.54491 76.8988 6.07582 76.6827C5.60674 76.4657 5.06893 76.4448 4.58427 76.6255C4.09961 76.8053 3.70747 77.1712 3.49768 77.6406C3.28787 78.11 3.27687 78.643 3.46836 79.1196C3.81743 80.0548 4.18665 80.97 4.5971 81.8852C4.90585 82.5779 5.59756 83.0246 6.36166 83.0246C6.63101 83.031 6.89764 82.9756 7.14133 82.8621C7.61316 82.6605 7.98515 82.281 8.17386 81.808C8.36259 81.3349 8.35251 80.8065 8.14729 80.3398H8.14731Z" fill="#203362"/>
<path d="M17.8949 94.8624C17.1134 94.1632 15.926 94.1632 15.1444 94.8624C14.7825 95.221 14.5791 95.7067 14.5791 96.2143C14.5791 96.7218 14.7825 97.2085 15.1444 97.5671C15.8215 98.2989 16.5397 98.9908 17.1967 99.6009C17.5521 99.9323 18.023 100.114 18.5105 100.109C19.0419 100.102 19.5494 99.8906 19.926 99.5192C20.2888 99.1606 20.4922 98.6739 20.4922 98.1673C20.4922 97.6597 20.2888 97.1731 19.926 96.8144C19.1875 96.1843 18.5306 95.5333 17.8948 94.8624H17.8949Z" fill="#203362"/>
<path d="M37.1461 107.512C36.2703 107.186 35.4081 106.841 34.5608 106.475C33.5795 106.048 32.4361 106.489 32.0054 107.461C31.5748 108.433 32.0201 109.566 33.0004 109.993C33.9239 110.38 34.8474 110.746 35.791 111.092H35.7919C36.0091 111.17 36.2381 111.211 36.469 111.213C37.4007 111.213 38.1996 110.552 38.3664 109.643C38.5322 108.734 38.0191 107.837 37.146 107.512L37.1461 107.512Z" fill="#203362"/>
<path d="M27.9708 103.037C27.17 102.549 26.3904 102.02 25.6308 101.492H25.6318C24.7247 100.885 23.4934 101.122 22.8813 102.02C22.2692 102.919 22.5084 104.139 23.4145 104.746C24.2354 105.315 25.0563 105.865 25.9185 106.393C26.229 106.576 26.5836 106.675 26.9446 106.678C27.8095 106.685 28.5736 106.119 28.8118 105.294C29.0509 104.47 28.7073 103.589 27.9707 103.139L27.9708 103.037Z" fill="#203362"/>
<path d="M98.097 33.5622C98.4671 34.1052 99.0782 34.4384 99.7388 34.4575C100.1 34.4538 100.454 34.3549 100.765 34.1723C101.62 33.5749 101.885 32.4363 101.381 31.5284C100.847 30.674 100.293 29.8605 99.7186 29.0469C99.1066 28.1762 97.8982 27.9628 97.0195 28.5693C96.1408 29.1759 95.9255 30.3734 96.5376 31.2433C97.1532 31.996 97.6663 32.7686 98.0969 33.5622L98.097 33.5622Z" fill="#203362"/>
<path d="M91.9402 25.5293C92.314 25.9079 92.8225 26.1267 93.3566 26.1394C93.8505 26.1285 94.3241 25.9406 94.6906 25.611C95.0525 25.2523 95.2559 24.7657 95.2559 24.2581C95.2559 23.7506 95.0525 23.2639 94.6906 22.9053C94.0136 22.1735 93.2953 21.4816 92.6383 20.8715C91.8843 20.1197 90.6576 20.1152 89.8979 20.8615C89.1384 21.6087 89.1339 22.8245 89.8879 23.5773C90.586 24.2074 91.242 24.8784 91.9401 25.5294L91.9402 25.5293Z" fill="#203362"/>
<path d="M101.648 40.0914C102.017 40.9321 102.366 41.7865 102.694 42.6535L102.695 42.6544C102.977 43.4007 103.696 43.8947 104.501 43.8947C104.732 43.8919 104.961 43.8511 105.178 43.773C105.661 43.5996 106.052 43.2409 106.265 42.7779C106.477 42.3148 106.492 41.7864 106.307 41.3115C105.958 40.3764 105.588 39.4612 105.178 38.546C104.747 37.58 103.608 37.1432 102.633 37.57C101.658 37.9967 101.217 39.1253 101.648 40.0914L101.648 40.0914Z" fill="#203362"/>
<path d="M104.786 49.8327L104.971 50.8087C105.094 51.378 105.197 51.9682 105.299 52.5574V52.5583C105.442 53.4935 106.253 54.1854 107.208 54.1854H107.496H107.495C108.576 53.9693 109.293 52.9451 109.117 51.8665C109.117 51.2364 108.891 50.6053 108.768 49.9752L108.563 48.9383V48.9374C108.342 47.9042 107.317 47.2441 106.274 47.4629C105.231 47.6826 104.565 48.6977 104.786 49.731L104.786 49.8327Z" fill="#203362"/>
<path d="M72.6277 12.8992C73.5036 13.2243 74.3658 13.5702 75.2131 13.9361C75.4614 14.0369 75.7253 14.0914 75.9928 14.0986C76.8971 14.0768 77.6676 13.4413 77.8536 12.5642C78.0395 11.6871 77.5924 10.7982 76.7724 10.4178L73.9819 9.2992C73.4999 9.12124 72.9667 9.14031 72.4995 9.35186C72.0313 9.56341 71.6676 9.95019 71.488 10.4278C71.1142 11.422 71.6245 12.5279 72.6277 12.8993V12.8992Z" fill="#203362"/>
<path d="M81.8009 17.2919C82.608 17.7804 83.3877 18.2888 84.1408 18.8172C84.4606 19.0551 84.849 19.1831 85.2494 19.1831C85.8788 19.1868 86.4707 18.8826 86.8289 18.3696C87.3896 17.4871 87.1853 16.3276 86.3571 15.6848C85.5362 15.1155 84.7153 14.5662 83.8531 14.0378C82.947 13.4757 81.7523 13.749 81.1852 14.6479C80.619 15.5468 80.8947 16.7298 81.8008 17.2918L81.8009 17.2919Z" fill="#203362"/>
<path d="M110 60.0016C110 58.9457 109.136 58.0895 108.071 58.0895C107.006 58.0895 106.142 58.9457 106.142 60.0016C106.126 73.0852 101.01 85.6555 91.8622 95.09C82.7151 104.524 70.243 110.088 57.0513 110.624L59.5553 108.59C60.3826 107.905 60.4926 106.685 59.8018 105.865C59.1101 105.045 57.8787 104.936 57.0513 105.62L50.2788 111.092C49.8647 111.476 49.6293 112.013 49.6293 112.576C49.6293 113.139 49.8647 113.677 50.2788 114.061L57.0513 119.573C57.393 119.849 57.8209 120 58.2625 120C58.8424 120.012 59.3967 119.757 59.7604 119.308C60.0893 118.915 60.2469 118.409 60.1966 117.9C60.1462 117.392 59.8933 116.925 59.4938 116.603L56.8672 114.569H56.8663C71.1331 114.073 84.6479 108.106 94.5597 97.9263C104.473 87.7463 110.008 74.1481 109.999 60.0021L110 60.0016Z" fill="#203362"/>
<path d="M3.85738 60.0017C3.90136 46.9545 9.00444 34.4223 18.1113 24.9993C27.2181 15.5776 39.6316 9.98449 52.7838 9.37899L50.2798 11.4128C49.5066 12.1146 49.392 13.2814 50.0132 14.1186C50.3925 14.5462 50.9358 14.7977 51.5112 14.8095C51.9574 14.8041 52.3898 14.6543 52.7425 14.3828L59.4948 8.87154V8.87063C59.9456 8.50836 60.2085 7.9627 60.2085 7.38614C60.2085 6.81049 59.9456 6.26483 59.4948 5.90165L52.7838 0.430356C51.9565 -0.237895 50.7389 -0.114425 50.0645 0.705466C49.3902 1.52533 49.5139 2.73202 50.3412 3.40032L52.9679 5.43413C38.7304 5.97073 25.2589 11.956 15.38 22.1313C5.50264 32.3076 -0.0100715 45.8816 1.38138e-05 60.002C1.38138e-05 61.0579 0.863978 61.9141 1.92951 61.9141C2.99412 61.9141 3.85809 61.0579 3.85809 60.002L3.85738 60.0017Z" fill="#203362"/>
</svg>
