<svg width="120" height="120" viewBox="0 0 120 120" fill="none" xmlns="http://www.w3.org/2000/svg">
<path d="M112.622 76.2018C105.906 69.5248 95.4069 67.1682 86.3288 70.2532L75.5363 59.4591C78.4598 56.2829 83.9268 52.6256 94.1173 49.6364C94.461 49.5306 94.7802 49.3434 95.0275 49.0801C96.0892 47.947 109.234 34.8464 115.93 28.1693C118.646 25.8169 122.519 19.7674 117.74 13.6772C115.854 11.2699 108.693 4.10688 106.31 2.24561C104.409 0.753567 102.356 0 100.211 0C95.3856 0 91.9576 3.89443 91.9119 3.95535C91.7146 4.15265 72.3191 23.6365 70.9035 24.9669C70.6403 25.215 70.448 25.5232 70.3524 25.8721C67.8284 34.4763 64.4504 40.829 60.526 44.4405L49.682 33.4958C52.7316 25.044 50.1925 14.194 43.6486 7.68824C36.5883 0.672622 26.165 -1.3005 17.0973 2.63967C16.475 2.91318 16.0304 3.47462 15.9136 4.13766C15.7976 4.80493 16.0152 5.48746 16.4953 5.95318L30.4533 19.4334C30.974 19.9491 31.2678 20.6527 31.2678 21.381C31.2678 21.9475 31.0705 22.4581 30.6963 22.8222L24.5767 28.953C23.697 29.8226 22.0943 29.7066 21.0773 28.6947L7.20991 14.9114C6.72477 14.4254 6.00173 14.2433 5.34386 14.3703C4.66653 14.527 4.12044 15.0071 3.88252 15.6549C2.62353 19.1149 1.98599 22.4631 1.98599 25.614C1.98599 31.7998 4.47423 37.6773 8.99035 42.1594C15.7019 48.8364 26.2004 51.198 35.2881 48.108L49.231 62.053L20.2629 91.0364L8.84816 97.2527C8.51457 97.4348 8.23603 97.7134 8.04891 98.0419L0.256248 111.998C-0.184006 112.787 -0.0468489 113.779 0.589842 114.415L5.57153 119.408C5.961 119.793 6.48169 120 7.0024 120C7.33599 120 7.67973 119.914 7.98877 119.742L21.9368 111.942C22.2653 111.755 22.5439 111.476 22.7259 111.143L28.9463 99.7312L58.0726 70.6069L61.3043 73.8391L71.8995 84.861C68.8344 93.4908 71.3178 104.103 77.943 110.662C82.5809 115.281 88.6795 117.718 94.9007 117.718C98.1274 117.718 101.39 117.06 104.489 115.716C105.111 115.442 105.556 114.881 105.673 114.219C105.789 113.551 105.572 112.868 105.086 112.403L91.133 98.9331C90.6928 98.4979 90.4557 97.906 90.4557 97.2539C90.4557 96.6011 90.7139 95.9846 91.1889 95.5138L97.1113 89.5853C98.0773 88.6293 99.5386 88.6242 100.5 89.5802L114.377 103.46C114.857 103.935 115.535 104.148 116.187 104.011C116.845 103.89 117.396 103.445 117.664 102.827C121.579 93.7879 119.546 83.0845 112.623 76.2004L112.622 76.2018ZM74.0804 27.5219C77.1912 24.4718 94.0269 7.56719 94.8711 6.71286C94.8915 6.68746 97.2579 4.04713 100.212 4.04713C101.446 4.04713 102.629 4.50272 103.818 5.43333C105.942 7.09728 112.871 14.0223 114.56 16.1767C118.074 20.6629 113.776 24.6742 113.179 25.2051C112.42 25.9587 95.5183 42.7921 92.4635 45.9083C80.5789 49.4692 72.9115 54.472 69.6705 60.7848C68.9881 62.1151 68.5783 63.3692 68.3455 64.5021L55.4948 51.6445C57.2703 51.2804 59.3835 50.4709 61.6094 48.8221C66.8038 44.9777 71.0015 37.8156 74.0816 27.5218L74.0804 27.5219ZM62.7511 69.551L56.601 63.3999L53.6825 60.476C53.6825 60.476 53.6774 60.476 53.6723 60.4709L50.4406 57.2387L52.8933 54.7857L65.203 67.0972L62.7511 69.551ZM33.7614 44.2507C26.2761 46.8911 17.4716 44.9087 11.844 39.2986C8.09671 35.5761 6.03849 30.7146 6.03849 25.6162C6.03849 23.871 6.27132 22.0452 6.74122 20.1484L18.2262 31.5648C20.8306 34.1697 24.9581 34.2763 27.4352 31.8231L33.5449 25.7076C34.6879 24.5847 35.3203 23.0418 35.3203 21.3728C35.3203 19.5768 34.5821 17.8222 33.2824 16.5367L21.6807 5.32773C28.4522 3.57232 35.6896 5.47423 40.7925 10.5575C46.2796 16.005 48.4193 25.0741 45.8801 32.1101C45.3239 33.6234 45.7133 35.3534 46.8665 36.532L56.8901 46.5522C56.9206 46.5776 56.9511 46.608 56.9816 46.6334L57.1433 46.7952C53.7803 48.4236 51.2463 47.6801 51.2413 47.6852C50.3565 47.382 49.3651 47.7207 48.8647 48.5201C48.3642 49.3195 48.4803 50.361 49.1483 51.0291L50.0382 51.9191L47.4337 54.5239L38.1425 45.2423C36.9842 44.089 35.2351 43.6995 33.7627 44.2507L33.7614 44.2507ZM25.8924 97.0798C25.7612 97.2161 25.6392 97.3728 25.5487 97.5455L19.4646 108.699L7.36239 115.466L4.54036 112.644L11.3017 100.535L22.4583 94.4547C22.6251 94.359 22.7817 94.2421 22.924 94.1109L52.2475 64.7742L55.2211 67.7482L25.8924 97.0798ZM114.964 98.3034L103.373 86.7101C100.818 84.1655 96.8186 84.1807 94.2643 86.7151L88.3419 92.6436C87.1032 93.8732 86.42 95.5116 86.42 97.2569C86.42 98.992 87.0922 100.605 88.3216 101.819L99.9233 113.023C93.1567 114.779 85.9144 112.887 80.8065 107.794C75.3396 102.382 73.2053 93.3067 75.7241 86.2157C76.3057 84.5721 75.9823 82.7964 74.8842 81.6837L65.614 72.4121L68.0719 69.959L68.9668 70.854C69.3308 71.2182 69.8067 71.4104 70.2969 71.4358C70.368 71.4409 70.4281 71.446 70.4992 71.446C71.6219 71.446 72.5219 70.5357 72.5219 69.423C72.5219 69.0284 72.411 68.6642 72.2137 68.3509C72.0571 67.4965 71.9402 65.432 73.195 62.8578L83.4668 73.1311C84.6149 74.2692 86.3395 74.6689 87.8516 74.1227C95.3217 71.4925 104.131 73.4749 109.769 79.0748C114.796 84.0751 116.718 91.4956 114.963 98.3038L114.964 98.3034Z" fill="#203362"/>
<path d="M90.2474 40.1558C90.642 40.5504 91.1627 40.7477 91.6783 40.7477C92.1939 40.7477 92.7155 40.5504 93.1092 40.1558L110.269 22.993C111.058 22.2038 111.058 20.9192 110.269 20.13C109.48 19.3408 108.196 19.3408 107.407 20.13L90.2466 37.2928C89.4584 38.082 89.4584 39.3666 90.2474 40.1558H90.2474Z" fill="#203362"/>
<path d="M81.2591 30.3335C81.7798 30.3335 82.2963 30.1362 82.69 29.7416L99.8543 12.5747C100.643 11.7854 100.643 10.5009 99.8543 9.71166C99.0652 8.92245 97.7808 8.92245 96.9917 9.71166L79.8274 26.8786C79.0383 27.6678 79.0383 28.9524 79.8274 29.7416C80.222 30.1362 80.7384 30.3335 81.2591 30.3335H81.2591Z" fill="#203362"/>
<path d="M85.0369 34.9466C85.4315 35.3412 85.9522 35.5385 86.4678 35.5385C86.9834 35.5385 87.505 35.3412 87.8987 34.9466L105.063 17.7838C105.852 16.9946 105.852 15.71 105.063 14.9208C104.274 14.1316 102.99 14.1316 102.2 14.9208L85.0368 32.0784C84.2477 32.8727 84.2477 34.1573 85.0368 34.9464L85.0369 34.9466Z" fill="#203362"/>
</svg>
