<svg width="120" height="120" viewBox="0 0 120 120" fill="none" xmlns="http://www.w3.org/2000/svg">
<path d="M24 8H28V12H24V8Z" fill="#203362"/>
<path d="M32 8H36V12H32V8Z" fill="#203362"/>
<path d="M40 8H44V12H40V8Z" fill="#203362"/>
<path d="M2 120H64C64.8089 120 65.5375 119.512 65.8473 118.765C66.1571 118.018 65.9857 117.158 65.4143 116.586L3.41429 54.5857C2.84197 54.0143 1.98215 53.8428 1.23481 54.1527C0.487497 54.4625 0 55.1911 0 56V118C0 118.53 0.210715 119.039 0.585714 119.414C0.960713 119.789 1.46965 120 2 120ZM4 60.8274L59.1726 116H4V60.8274Z" fill="#203362"/>
<path d="M35.4149 104.585L15.4149 84.5851C14.8425 84.0137 13.9827 83.8422 13.2354 84.1521C12.4881 84.4619 12.0006 85.1905 12.0006 85.9994V105.999C12.0006 106.53 12.2113 107.039 12.5863 107.414C12.9613 107.789 13.4702 107.999 14.0006 107.999H34.0006C34.8095 107.999 35.5381 107.512 35.8479 106.765C36.1577 106.017 35.9863 105.157 35.4149 104.585ZM16.0005 103.999V90.827L29.1728 103.999H16.0005Z" fill="#203362"/>
<path d="M117.755 17.0722C119.689 15.1374 120.445 12.3186 119.737 9.67589C119.029 7.03383 116.965 4.97051 114.323 4.2624C111.68 3.55435 108.861 4.30972 106.927 6.24366L103.927 9.24366C103.741 6.73554 102.615 4.39017 100.775 2.6768C98.934 0.962514 96.5143 0.00708571 93.9991 0H25.9991C23.3481 0.00357143 20.8062 1.05803 18.9312 2.93211C17.0571 4.80711 16.0027 7.34903 15.9991 10V62H19.9991V10C19.9991 8.40894 20.6312 6.88206 21.7562 5.75726C22.8812 4.63246 24.4081 4.00011 25.999 4.00011H93.999C95.59 4.00011 97.1169 4.63225 98.2417 5.75726C99.3665 6.88226 99.9988 8.40914 99.9988 10V13.1723L81.1712 32H66.4713C64.5624 27.1134 60.9696 23.0697 56.341 20.6C51.7125 18.1294 46.3536 17.3954 41.2313 18.5304C36.109 19.6661 31.5616 22.5946 28.4089 26.7884C25.2571 30.9822 23.7081 36.1651 24.0427 41.401C24.3767 46.6366 26.5712 51.5804 30.2311 55.3393C33.891 59.0981 38.7739 61.4259 43.9989 61.9V70.0001C43.9989 70.5304 44.2096 71.0394 44.5846 71.4144C44.9596 71.7894 45.4685 72.0001 45.9989 72.0001H89.9988C90.5292 72.0001 91.0381 71.7894 91.4131 71.4144C91.7881 71.0394 91.9988 70.5304 91.9988 70.0001V42.8275L99.9988 34.8275V76.0001H53.9989C52.8944 76.0001 51.9989 76.8956 51.9989 78.0001V94.0001C51.9989 94.5304 52.2096 95.0394 52.5846 95.4144C52.9596 95.7894 53.4685 96.0001 53.9989 96.0001H99.9988V98.0001C99.9988 99.5911 99.3667 101.118 98.2417 102.243C97.1167 103.368 95.5898 104 93.999 104H61.999V108H93.999C96.6499 107.996 99.1919 106.942 101.067 105.068C102.941 103.193 103.995 100.651 103.999 98V96H117.999C118.529 96 119.038 95.7892 119.413 95.4142C119.788 95.0392 119.999 94.5303 119.999 94V78C119.999 77.4696 119.788 76.9607 119.413 76.5857C119.038 76.2107 118.529 76 117.999 76H103.999V30.8274L117.755 17.0722ZM109.755 9.07223C110.436 8.36151 111.373 7.95527 112.357 7.94455C113.341 7.93383 114.288 8.32043 114.983 9.01598C115.679 9.71152 116.065 10.6579 116.055 11.6418C116.044 12.6257 115.638 13.5632 114.927 14.2436L113.999 15.1722L108.827 9.99986L109.755 9.07223ZM64 40.0002C63.9937 44.4251 62.3598 48.6939 59.4089 51.9913C56.4581 55.2896 52.3973 57.3861 48 57.8823V36.0002H63.5358C63.8402 37.3118 63.9956 38.6537 64 40.0002H64ZM44 34.0002V57.8814C37.6811 57.1849 32.1982 53.2082 29.5751 47.4181C26.952 41.6279 27.5769 34.8832 31.2197 29.6734C34.8627 24.4645 40.9832 21.5627 47.3224 22.0402C53.6616 22.5179 59.2787 26.3026 62.0999 31.9991H45.9998C44.8954 31.9991 43.9998 32.8946 43.9998 33.9991L44 34.0002ZM88 68.0002H48V61.9001C54.1669 61.3608 59.8178 58.2377 63.5554 53.3029C67.293 48.368 68.7689 42.0823 67.6178 36.0002H77.1714L72.5858 40.5858C72.3063 40.8644 72.1162 41.2206 72.0403 41.6082L70.0403 51.6082C69.9224 52.1957 70.0751 52.8046 70.4546 53.268C70.8341 53.7314 71.401 54.0001 72.0001 54.0001C72.1349 54.001 72.2689 53.9876 72.4001 53.9599L82.4001 51.9599C82.7876 51.884 83.1439 51.6939 83.4224 51.4144L88 46.8279L88 68.0002ZM75.2277 46.0565L77.9438 48.7726L74.5438 49.4502L75.2277 46.0565ZM108 79.9993V83.9993H112V79.9993H116V91.9993H56.0002V79.9993H60.0002V83.9993H64.0002V79.9993H68.0002V83.9993H72.0002V79.9993H76.0002V83.9993H80.0002V79.9993H84.0002V83.9993H88.0002V79.9993H92.0002V83.9993H96.0002V79.9993H100V83.9993H104V79.9993H108ZM82.0002 47.1719L76.8279 41.9995L106 12.827L111.173 17.9993L82.0002 47.1719Z" fill="#203362"/>
</svg>
